<?xml version="1.0" encoding="UTF-8" standalone="no"?><!-- Generator: Gravit.io --><svg xmlns="http://www.w3.org/2000/svg" xmlns:xlink="http://www.w3.org/1999/xlink" style="isolation:isolate" viewBox="0 0 28 28" width="28pt" height="28pt"><defs><clipPath id="_clipPath_JZf4R2FejmQInKPqGHU64PEBNK9LtOhJ"><rect width="28" height="28"/></clipPath></defs><g clip-path="url(#_clipPath_JZf4R2FejmQInKPqGHU64PEBNK9LtOhJ)"><path d=" M 11.834 8.401 L 11.834 8.401 L 11.834 8.401 Q 12.556 8.401 12.556 9.161 L 12.556 9.161 L 12.556 9.427 L 12.556 9.427 Q 12.556 9.731 12.347 9.959 L 12.347 9.959 L 12.347 9.959 Q 12.138 10.187 11.834 10.187 L 11.834 10.187 L 11.834 10.187 Q 9.668 10.187 8.376 11.289 L 8.376 11.289 L 8.376 11.289 Q 7.084 12.391 7.084 14.671 L 7.084 14.671 L 7.084 26.717 L 7.084 26.717 Q 7.084 27.059 6.856 27.268 L 6.856 27.268 L 6.856 27.268 Q 6.628 27.477 6.324 27.477 L 6.324 27.477 L 6.058 27.477 L 6.058 27.477 Q 5.754 27.477 5.526 27.268 L 5.526 27.268 L 5.526 27.268 Q 5.298 27.059 5.298 26.717 L 5.298 26.717 L 5.298 14.671 L 5.298 14.671 Q 5.298 11.555 7.046 9.978 L 7.046 9.978 L 7.046 9.978 Q 8.794 8.401 11.834 8.401 Z  M 24.032 0.915 L 24.526 0.915 L 24.526 0.915 Q 25.172 0.915 25.172 1.561 L 25.172 1.561 L 25.172 1.561 Q 25.172 1.713 25.096 1.903 L 25.096 1.903 L 15.178 26.983 L 15.178 26.983 Q 14.874 27.477 14.608 27.477 L 14.608 27.477 L 14.152 27.477 L 14.152 27.477 Q 13.734 27.477 13.544 27.23 L 13.544 27.23 L 13.544 27.23 Q 13.354 26.983 13.354 26.812 L 13.354 26.812 L 13.354 26.812 Q 13.354 26.641 13.43 26.489 L 13.43 26.489 L 23.31 1.409 L 23.31 1.409 Q 23.576 0.915 24.032 0.915 L 24.032 0.915 L 24.032 0.915 Z " fill="rgb(0,0,0)"/></g></svg>